<?xml version="1.0" encoding="UTF-8" standalone="no"?>
<!-- Created with Inkscape (http://www.inkscape.org/) -->

<svg
   width="512"
   height="512"
   viewBox="0 0 135.46667 135.46667"
   version="1.1"
   id="svg5"
   sodipodi:docname="quest.svg"
   inkscape:version="1.2.2 (732a01da63, 2022-12-09)"
   xml:space="preserve"
   inkscape:export-filename="quest.png"
   inkscape:export-xdpi="192"
   inkscape:export-ydpi="192"
   xmlns:inkscape="http://www.inkscape.org/namespaces/inkscape"
   xmlns:sodipodi="http://sodipodi.sourceforge.net/DTD/sodipodi-0.dtd"
   xmlns="http://www.w3.org/2000/svg"
   xmlns:svg="http://www.w3.org/2000/svg"><sodipodi:namedview
     id="namedview7"
     pagecolor="#505050"
     bordercolor="#ffffff"
     borderopacity="1"
     inkscape:showpageshadow="0"
     inkscape:pageopacity="0"
     inkscape:pagecheckerboard="1"
     inkscape:deskcolor="#505050"
     inkscape:document-units="mm"
     showgrid="false"
     inkscape:zoom="1.0544998"
     inkscape:cx="38.880994"
     inkscape:cy="199.14655"
     inkscape:window-width="1920"
     inkscape:window-height="1017"
     inkscape:window-x="-8"
     inkscape:window-y="-8"
     inkscape:window-maximized="1"
     inkscape:current-layer="svg5"
     showguides="true"><inkscape:grid
       type="xygrid"
       id="grid2097" /></sodipodi:namedview><defs
     id="defs2"><rect
       x="226.64973"
       y="453.29947"
       width="490.85089"
       height="403.67792"
       id="rect113" /><clipPath
       clipPathUnits="userSpaceOnUse"
       id="clipPath789"><path
         id="path791"
         style="fill:#ff0000;fill-opacity:1;fill-rule:nonzero;stroke:none;stroke-width:0.450033"
         d="m 148.42049,440.61008 6.82839,265.56016 298.3837,-1.28032 4.69451,-245.92855 z"
         sodipodi:nodetypes="ccccc" /></clipPath><clipPath
       clipPathUnits="userSpaceOnUse"
       id="clipPath1265"><g
         inkscape:label="Clip"
         id="use1267" /></clipPath><clipPath
       clipPathUnits="userSpaceOnUse"
       id="clipPath789-2"><path
         id="path791-1"
         style="fill:#ff0000;fill-opacity:1;fill-rule:nonzero;stroke:none;stroke-width:0.450033"
         d="m 148.42049,440.61008 6.82839,265.56016 298.3837,-1.28032 4.69451,-245.92855 z"
         sodipodi:nodetypes="ccccc" /></clipPath></defs><g
     inkscape:groupmode="layer"
     id="layer2"
     inkscape:label="BG"
     style="display:inline"><rect
       style="display:inline;fill:#000000;stroke-width:0.194771"
       id="rect1431"
       width="135.467"
       height="135.467"
       x="-0.00016428629"
       y="-0.00016428629" /></g><g
     inkscape:label="Shape"
     inkscape:groupmode="layer"
     id="layer1"><path
       id="text111"
       clip-path="url(#clipPath789)"
       style="font-style:italic;font-variant:normal;font-weight:bold;font-stretch:normal;font-size:192px;font-family:Montserrat;-inkscape-font-specification:'Montserrat Bold Italic';white-space:pre;shape-inside:url(#rect113);display:inline;fill:#ffffff;fill-opacity:1"
       d="m 319.578,493.06064 c -16.25599,0 -30.71931,3.51997 -43.3913,10.55996 -12.54399,7.03999 -22.3361,16.704 -29.3761,28.99199 -6.91199,12.15998 -10.36834,25.8564 -10.36834,41.08839 0,8.20121 1.30165,15.67729 3.89912,22.43134 l 28.14114,-17.18037 c -0.36469,-2.21099 -0.55199,-4.53465 -0.55199,-6.97903 0,-9.59999 1.98351,-18.3681 5.95151,-26.3041 3.968,-7.93599 9.66409,-14.27175 17.08808,-19.00775 7.42399,-4.73599 16.06399,-7.10472 25.91998,-7.10472 11.64799,0 20.67232,3.07202 27.07232,9.21601 0.87919,0.82644 1.69215,1.69736 2.45057,2.60351 l 26.7216,-16.3137 c -4.8495,-6.06813 -11.04987,-10.97313 -18.61221,-14.70519 -9.85599,-4.864 -21.5044,-7.29634 -34.94438,-7.29634 z m 63.54522,42.26709 -29.56332,18.04791 c -0.0301,9.51404 -2.01207,18.20987 -5.94975,26.08523 -3.968,7.936 -9.66409,14.27176 -17.08808,19.00776 -7.424,4.73599 -16.064,7.10384 -25.91999,7.10384 -10.35834,0 -18.63952,-2.38054 -24.84763,-7.13812 l -27.01167,16.49038 c 8.6901,8.47637 22.12916,13.48933 34.57961,15.992 12.05505,2.42319 24.93214,1.62683 36.86405,-1.34395 11.5269,-2.86994 22.976,-8.12764 32.06399,-15.55164 9.216,-7.42399 16.31955,-16.51194 21.31154,-27.26393 4.992,-10.75199 7.48884,-22.5285 7.48884,-35.32849 0,-5.69619 -0.64449,-11.062 -1.92759,-16.10099 z"
       transform="matrix(0.58791949,0,0,0.58791949,-114.96061,-263.09095)"
       sodipodi:nodetypes="cccccccccccccccccccccccccccc" /><circle
       style="display:inline;fill:#ffffff;fill-opacity:1;stroke-width:0.32425"
       id="path1184"
       cy="67.73333"
       cx="67.73333"
       r="14.675662" /><g
       inkscape:groupmode="layer"
       id="layer3"
       inkscape:label="Bridges"
       style="display:none"><path
         id="rect1049-9"
         style="display:inline;fill:#ffffff;stroke-width:0.204041"
         d="m 25.404372,102.05682 51.689378,3.7382 -2.925776,4.76005 c 0,0 -36.893355,5.72859 -50.162933,-3.7467 -2.97127,-2.12166 1.399331,-4.75155 1.399331,-4.75155 z"
         sodipodi:nodetypes="cccsc"
         transform="matrix(0.82678005,-0.56252531,0.43995853,0.89801808,0,0)" /><path
         id="rect1049"
         style="display:inline;fill:#ffffff;stroke-width:0.195451"
         d="m 26.606832,80.810658 c 0,0 28.698816,-31.243813 44.187246,-27.278566 2.141492,0.548251 -0.616034,7.100517 -0.616034,7.100517 L 26.340772,87.38686 Z"
         sodipodi:nodetypes="csccc" /></g></g></svg>
